<?xml version="1.0" encoding="UTF-8" standalone="no"?>
<svg
   version="1.1"
   id="All"
   x="0"
   y="0"
   viewBox="0 0 320 64"
   xml:space="preserve"
   sodipodi:docname="map.svg"
   inkscape:version="1.2.2 (b0a8486541, 2022-12-01)"
   width="320"
   height="64"
   xmlns:inkscape="http://www.inkscape.org/namespaces/inkscape"
   xmlns:sodipodi="http://sodipodi.sourceforge.net/DTD/sodipodi-0.dtd"
   xmlns="http://www.w3.org/2000/svg"
   xmlns:svg="http://www.w3.org/2000/svg"
   xmlns:rdf="http://www.w3.org/1999/02/22-rdf-syntax-ns#"
   xmlns:cc="http://creativecommons.org/ns#"
   xmlns:dc="http://purl.org/dc/elements/1.1/"><metadata
     id="metadata31"><rdf:RDF><cc:Work
         rdf:about=""><dc:format>image/svg+xml</dc:format><dc:type
           rdf:resource="http://purl.org/dc/dcmitype/StillImage" /></cc:Work></rdf:RDF></metadata><defs
     id="defs29" /><sodipodi:namedview
     pagecolor="#ffffff"
     bordercolor="#666666"
     borderopacity="1"
     objecttolerance="10"
     gridtolerance="10"
     guidetolerance="10"
     inkscape:pageopacity="0"
     inkscape:pageshadow="2"
     inkscape:window-width="1920"
     inkscape:window-height="1048"
     id="namedview27"
     showgrid="false"
     inkscape:zoom="1.3945312"
     inkscape:cx="292.92998"
     inkscape:cy="73.859947"
     inkscape:window-x="1920"
     inkscape:window-y="0"
     inkscape:window-maximized="1"
     inkscape:current-layer="All"
     inkscape:showpageshadow="2"
     inkscape:pagecheckerboard="0"
     inkscape:deskcolor="#d1d1d1" /><style
     id="style2">.st0{fill:#fff}</style><path
     id="Facebook"
     class="st0"
     d="m 125.86202,32.42598 c 0,-16.8 -13.6,-30.3999997 -30.300003,-30.4999997 -16.8,0 -30.500004,13.5999997 -30.500004,30.2999997 0,16.7 13.400004,30.3 30.100004,30.5 v -22.6 h -7.9 v -9 h 7.9 v -6.9 c -0.2,-3.3 1,-6.6 3.3,-9 2.300003,-2.1 5.400003,-3.3 8.600003,-3.1 2.4,-0.1 4.7,0 7.1,0.3 v 8.3 h -4.9 c -1.4,-0.1 -2.7,0.3 -3.7,1.2 -0.7,1 -0.9,2.2 -0.8,3.4 v 5.8 h 9.1 l -1.2,9 h -7.9 v 21 c 12.5,-3.9 21.1,-15.6 21.1,-28.7 z"
     style="fill:#ffffff;fill-opacity:1" /><path
     id="Linking"
     class="st0"
     d="m 159.56202,1.9259803 c -16.8,0 -30.4,13.5999997 -30.5,30.2999997 -0.1,16.7 13.6,30.4 30.3,30.5 16.7,0.1 30.4,-13.6 30.5,-30.3 v -0.1 c 0,-16.8 -13.6,-30.3999997 -30.3,-30.3999997 z m -9.6,47.4999997 h -7.2 v -23.3 h 7.2 z m -0.7,-27.5 c -1.6,1.6 -4.2,1.6 -5.8,0 -1.6,-1.6 -1.6,-4.2 0,-5.8 1.6,-1.6 4.2,-1.6 5.8,0 1.6,1.5 1.7,4 0.2,5.6 z m 27.5,27.5 h -6.9 v -11.3 c 0.1,-1.4 -0.1,-2.8 -0.5,-4.1 -0.5,-1.4 -1.8,-2.3 -3.3,-2.1 -1.4,-0.1 -2.8,0.6 -3.6,1.9 -0.6,1.3 -0.8,2.7 -0.8,4.1 v 11.6 h -7.4 v -23.3 h 6.9 v 3.1 c 0.6,-1.1 1.6,-2 2.7,-2.5 1.3,-0.8 2.9,-1.2 4.4,-1.2 2.7,-0.3 5.4,0.9 7,3.1 1.1,2.5 1.6,5.2 1.3,8 v 12.7 z"
     style="fill:#ffffff;fill-opacity:1" /><path
     id="Mail"
     class="st0"
     d="m 224,62.4 c -8.1,0 -15.8,-3.2 -21.5,-8.9 -5.7,-5.7 -8.9,-13.4 -8.9,-21.5 0,-8.1 3.2,-15.8 8.9,-21.5 5.7,-5.7 13.4,-8.9 21.5,-8.9 8.1,0 15.8,3.2 21.5,8.9 5.7,5.7 8.9,13.4 8.9,21.5 0,8.1 -3.2,15.8 -8.9,21.5 -5.7,5.7 -13.4,8.9 -21.5,8.9 z M 207.9,23.1 v 17.2 c 0,1.4 1,2.5 2.4,2.5 h 27.3 c 1.4,0 2.5,-1 2.5,-2.4 V 23.1 l -14.3,14.3 c -0.5,0.5 -1.1,0.8 -1.8,0.7 -0.7,0 -1.3,-0.2 -1.8,-0.7 z m 2.5,-1.8 12.7,12.5 c 0.2,0.3 0.5,0.4 0.9,0.4 0.3,0 0.7,-0.1 0.9,-0.4 l 12.7,-12.5 z"
     style="fill:#ffffff;fill-opacity:1" /><path
     d="M 288.49087,2.2885508 C 271.64306,2.2885508 258,15.931617 258,32.779429 c 0,12.910556 8.01186,23.944026 19.36582,28.384884 -0.27469,-2.426438 -0.50359,-6.089011 0.0916,-8.744374 0.54939,-2.380657 3.57101,-15.153872 3.57101,-15.153872 0,0 -0.91566,-1.831274 -0.91566,-4.532432 0,-4.257722 2.47223,-7.416686 5.49386,-7.416686 2.60958,0 3.8457,1.968616 3.8457,4.303516 0,2.609567 -1.64816,6.546839 -2.51802,10.163624 -0.7325,3.021607 1.51081,5.493847 4.53242,5.493847 5.4023,0 9.56847,-5.722765 9.56847,-13.963537 0,-7.279358 -5.26495,-12.406948 -12.72743,-12.406948 -8.65281,0 -13.7804,6.50106 -13.7804,13.23102 0,2.609583 1.0072,5.448083 2.28911,6.958879 0.2289,0.32048 0.27468,0.549382 0.2289,0.86986 -0.2289,0.961431 -0.73249,3.021632 -0.82406,3.433656 -0.13737,0.549382 -0.45784,0.686724 -1.00721,0.41204 -3.79992,-1.785493 -6.1806,-7.325137 -6.1806,-11.811776 0,-9.614242 7.00466,-18.450184 20.14413,-18.450184 10.57565,0 18.77066,7.554048 18.77066,17.580315 0,10.484111 -6.63841,18.953801 -15.79484,18.953801 -3.06739,0 -5.99744,-1.602372 -7.00465,-3.479451 0,0 -1.51079,5.814328 -1.87706,7.233577 -0.68675,2.655364 -2.56379,5.951678 -3.79992,8.011856 2.8385,0.869868 5.86011,1.373469 9.01907,1.373469 16.84782,0 30.49088,-13.64306 30.49088,-30.490878 0,-16.802018 -13.64306,-30.4450842 -30.49088,-30.4450842 z"
     id="path5286"
     inkscape:connector-curvature="0"
     style="fill:#ffffff;fill-opacity:1;stroke-width:0.457821" /><path
     style="color:#000000;clip-rule:nonzero;display:inline;overflow:visible;visibility:visible;opacity:1;isolation:auto;mix-blend-mode:normal;color-interpolation:sRGB;color-interpolation-filters:linearRGB;solid-color:#000000;solid-opacity:1;fill:#ffffff;fill-opacity:1;fill-rule:evenodd;stroke:#808080;stroke-width:2.32731;stroke-linecap:butt;stroke-linejoin:miter;stroke-miterlimit:4;stroke-dasharray:none;stroke-dashoffset:0;stroke-opacity:1;color-rendering:auto;image-rendering:auto;shape-rendering:auto;text-rendering:auto;enable-background:accumulate"
     d="m 44.709516,10.153055 a 8.4974796,8.2357028 0 0 0 -8.49734,8.235894 8.4974796,8.2357028 0 0 0 0.0115,0.308857 l -15.45875,7.617488 a 8.4974796,8.2357028 0 0 0 -4.76669,-1.420176 8.4974796,8.2357028 0 0 0 -8.4973403,8.235202 8.4974796,8.2357028 0 0 0 8.4973403,8.235899 8.4974796,8.2357028 0 0 0 4.71858,-1.393682 l 15.51315,7.209635 a 8.4974796,8.2357028 0 0 0 -0.0314,0.617708 8.4974796,8.2357028 0 0 0 8.49735,8.235899 8.4974796,8.2357028 0 0 0 8.49734,-8.235899 8.4974796,8.2357028 0 0 0 -8.49734,-8.235897 8.4974796,8.2357028 0 0 0 -4.39229,1.194983 l -15.82202,-7.353255 a 8.4974796,8.2357028 0 0 0 0.014,-0.275391 8.4974796,8.2357028 0 0 0 -0.009,-0.242622 l 15.51804,-7.646074 a 8.4974796,8.2357028 0 0 0 4.70463,1.382524 8.4974796,8.2357028 0 0 0 8.49735,-8.235199 8.4974796,8.2357028 0 0 0 -8.49735,-8.235894 z"
     id="path4138"
     inkscape:connector-curvature="0" /></svg>
