<?xml version="1.0" encoding="UTF-8" standalone="no"?>
<!-- Created with Inkscape (http://www.inkscape.org/) -->

<svg
   xmlns:dc="http://purl.org/dc/elements/1.1/"
   xmlns:cc="http://creativecommons.org/ns#"
   xmlns:rdf="http://www.w3.org/1999/02/22-rdf-syntax-ns#"
   xmlns:svg="http://www.w3.org/2000/svg"
   xmlns="http://www.w3.org/2000/svg"
   xmlns:sodipodi="http://sodipodi.sourceforge.net/DTD/sodipodi-0.dtd"
   xmlns:inkscape="http://www.inkscape.org/namespaces/inkscape"
   width="100"
   height="100"
   viewBox="0 0 26.458333 26.458334"
   version="1.1"
   id="svg3814"
   inkscape:version="0.92.4 (5da689c313, 2019-01-14)"
   sodipodi:docname="default.svg">
  <defs
     id="defs3808" />
  <sodipodi:namedview
     id="base"
     pagecolor="#ffffff"
     bordercolor="#666666"
     borderopacity="1.0"
     inkscape:pageopacity="0.0"
     inkscape:pageshadow="2"
     inkscape:zoom="2.8"
     inkscape:cx="100.20949"
     inkscape:cy="-1.0080392"
     inkscape:document-units="mm"
     inkscape:current-layer="layer1"
     showgrid="false"
     units="px"
     inkscape:window-width="1920"
     inkscape:window-height="1017"
     inkscape:window-x="1912"
     inkscape:window-y="-8"
     inkscape:window-maximized="1" />
  <metadata
     id="metadata3811">
    <rdf:RDF>
      <cc:Work
         rdf:about="">
        <dc:format>image/svg+xml</dc:format>
        <dc:type
           rdf:resource="http://purl.org/dc/dcmitype/StillImage" />
        <dc:title></dc:title>
      </cc:Work>
    </rdf:RDF>
  </metadata>
  <g
     inkscape:label="Calque 1"
     inkscape:groupmode="layer"
     id="layer1"
     transform="translate(0,-270.54165)">
    <path
       inkscape:connector-curvature="0"
       class="st0"
       d="m 13.250973,272.23351 c 2.486214,0 4.536237,2.13487 4.536237,4.72396 0,2.58907 -2.050023,4.72393 -4.536237,4.72393 -2.486195,0 -4.5362211,-2.13486 -4.5362211,-4.72393 0,-2.58909 2.0500261,-4.72396 4.5362211,-4.72396 m 0,-1.58978 c -3.3585535,0 -6.0628511,2.81619 -6.0628511,6.31374 0,3.49753 2.7042976,6.31372 6.0628511,6.31372 3.358553,0 6.062852,-2.81619 6.062852,-6.31372 0,-3.49755 -2.704299,-6.31374 -6.062852,-6.31374 z m 3.881966,15.03486 c 0,0 1.264923,0.0454 3.096864,5.35985 0.261705,0.81759 0.174465,1.86233 -0.218102,2.72535 -0.30531,0.5905 -0.697876,0.95388 -1.090427,1.09013 -1.701095,0.49966 -3.881982,0.49966 -5.62668,0.49966 -1.7447,0 -3.9692066,0 -5.6702848,-0.49966 -0.3925667,-0.13634 -0.8287374,-0.49963 -1.0904432,-1.09013 -0.4361706,-0.86302 -0.5234115,-1.90776 -0.2180853,-2.72535 1.8319399,-5.26901 3.0968475,-5.35985 3.0968475,-5.35985 h 7.7203108 m 0,-1.58979 H 9.3690079 c -1.788319,0 -3.3149329,2.81619 -4.5362372,6.40457 -0.7851172,2.27112 0.3489463,5.26901 2.3553512,5.85952 1.8755599,0.54506 4.1000671,0.54506 6.0628511,0.54506 1.919181,0 4.187291,0 6.019232,-0.54506 2.00642,-0.59051 3.140469,-3.5884 2.35535,-5.85952 -1.221287,-3.58838 -2.704281,-6.40457 -4.492616,-6.40457 z"
       id="Account"
       style="fill:#ffffff;stroke-width:0.44510928" />
  </g>
</svg>
