<?xml version="1.0" encoding="UTF-8" standalone="no"?>
<!-- Created with Inkscape (http://www.inkscape.org/) -->

<svg
   width="271.64499mm"
   height="80.825996mm"
   viewBox="0 0 271.64498 80.825996"
   version="1.1"
   id="svg9578"
   xmlns="http://www.w3.org/2000/svg"
   xmlns:svg="http://www.w3.org/2000/svg">
  <defs
     id="defs9575" />
  <g
     id="layer1"
     transform="translate(-19.497584,-72.695729)">
    <path
       d="M 57.685795,146.7699 V 116.64304 H 39.432033 V 146.7699 H 27.177758 V 81.024329 H 39.432033 V 107.85605 H 57.685795 V 81.024329 H 70.067713 V 146.7699 Z"
       style="font-size:64px;font-family:Dhurjati;-inkscape-font-specification:'Dhurjati, Normal';white-space:pre;fill:#1ab1ff;fill-opacity:1;stroke:#040723;stroke-width:1.7;stroke-linejoin:round;stroke-miterlimit:0;stroke-dasharray:none;stroke-opacity:1;paint-order:markers stroke fill"
       id="path2274" />
    <path
       d="M 104.4477,146.7699 H 80.693287 V 94.517579 H 104.4477 V 100.299 H 86.051437 v 16.3197 h 17.324643 v 5.70825 H 86.051437 v 18.66152 H 104.4477 Z"
       style="font-size:34.3096px;white-space:pre;fill:#1ab1ff;fill-opacity:1;stroke:#040723;stroke-width:1.7;stroke-linejoin:round;stroke-miterlimit:0;stroke-dasharray:none;stroke-opacity:1;paint-order:markers stroke fill"
       id="path2276" />
    <path
       d="M 113.79466,146.7699 V 94.517579 h 5.35815 v 46.397711 h 18.57485 v 5.85461 z"
       style="font-size:34.3096px;white-space:pre;fill:#1ab1ff;fill-opacity:1;stroke:#040723;stroke-width:1.7;stroke-linejoin:round;stroke-miterlimit:0;stroke-dasharray:none;stroke-opacity:1;paint-order:markers stroke fill"
       id="path2278" />
    <path
       d="M 223.68989,147.39748 V 117.0014 H 205.273 v 30.39608 H 192.90921 V 81.064369 H 205.273 v 27.071511 h 18.41689 V 81.064369 h 12.49257 v 66.333111 z"
       style="font-size:64px;font-family:Dhurjati;-inkscape-font-specification:'Dhurjati, Normal';white-space:pre;fill:#1ab1ff;fill-opacity:1;stroke:#040723;stroke-width:1.7;stroke-linejoin:round;stroke-miterlimit:0;stroke-dasharray:none;stroke-opacity:1;paint-order:markers stroke fill"
       id="path2282" />
    <path
       d="M 245.19778,147.39748 V 81.064369 h 24.85636 q 2.96214,0 5.66673,0.79158 2.70458,0.79157 4.76521,2.3747 2.18943,1.42481 3.34852,3.64118 1.28791,2.2164 1.28791,5.06601 v 13.298281 q 0,2.84964 -1.28791,5.06603 -1.15909,2.21637 -3.34852,3.79952 -2.06063,1.42479 -4.76521,2.21636 -2.70459,0.79158 -5.66673,0.79158 h -12.49258 v 29.28787 z m 27.56093,-53.034821 q 0,-2.21637 -1.41668,-3.32456 -1.41668,-1.1082 -3.86367,-1.1082 h -9.9168 v 19.314191 h 9.9168 q 2.44699,0 3.86367,-1.10821 1.41668,-1.10818 1.41668,-3.32455 z"
       style="font-size:64px;font-family:Dhurjati;-inkscape-font-specification:'Dhurjati, Normal';white-space:pre;fill:#1ab1ff;fill-opacity:1;stroke:#040723;stroke-width:1.7;stroke-linejoin:round;stroke-miterlimit:0;stroke-dasharray:none;stroke-opacity:1;paint-order:markers stroke fill"
       id="path2284" />
    <path
       d="M 144.48997,146.60411 V 80.271009 h 24.85636 q 2.96214,0 5.66673,0.79157 2.70458,0.79158 4.7652,2.37471 2.18943,1.42482 3.34852,3.64118 1.28792,2.2164 1.28792,5.066 v 13.298291 q 0,2.84964 -1.28792,5.06603 -1.15909,2.21637 -3.34852,3.79951 -2.06062,1.42481 -4.7652,2.21637 -2.70459,0.79158 -5.66673,0.79158 h -12.49258 v 29.28788 z M 172.0509,93.569289 q 0,-2.21636 -1.41668,-3.32455 -1.41669,-1.10821 -3.86368,-1.10821 h -9.91679 v 19.314191 h 9.91679 q 2.44699,0 3.86368,-1.1082 1.41668,-1.10819 1.41668,-3.32455 z"
       style="font-size:64px;font-family:Dhurjati;-inkscape-font-specification:'Dhurjati, Normal';white-space:pre;fill:#1ab1ff;fill-opacity:1;stroke:#040723;stroke-width:1.7;stroke-linejoin:round;stroke-miterlimit:0;stroke-dasharray:none;stroke-opacity:1;paint-order:markers stroke fill"
       id="path2284-8" />
    <text
       xml:space="preserve"
       style="font-size:50.0436px;fill:#1ab1ff;fill-opacity:1;stroke:#040723;stroke-width:0.691771;stroke-miterlimit:0;stroke-dasharray:none;stroke-opacity:1"
       x="160.61432"
       y="152.6857"
       id="text5977"><tspan
         id="tspan5975"
         style="fill:#1ab1ff;fill-opacity:1;stroke:#040723;stroke-width:0.691771;stroke-dasharray:none;stroke-opacity:1"
         x="160.61432"
         y="152.6857">¤</tspan></text>
  </g>
</svg>
